<svg width="100" height="100" viewBox="0 0 100 100" fill="none" xmlns="http://www.w3.org/2000/svg">
<path d="M25.688 58.752C27.096 62.944 29.816 65.04 33.848 65.04C36.568 65.04 38.456 64.272 39.512 62.736C40.6 61.168 41.144 59.024 41.144 56.304V32.4H42.584V56.304C42.584 63.088 39.672 66.48 33.848 66.48C31.096 66.48 28.968 65.792 27.464 64.416C25.992 63.04 24.824 61.152 23.96 58.752H25.688ZM54.2915 64.56H69.9395L60.0995 41.376L49.6355 66H48.0995L60.0995 37.68L72.0995 66H54.2915V64.56Z" fill="#4F646B"/>
<circle cx="50" cy="50" r="49" stroke="#4F646B" stroke-width="2"/>
</svg>
